# AST/ASF file generated using VICON BodyLanguage
# -----------------------------------------------
:version 1.10
:name VICON
:units
  mass 1.0
  length 0.45
  angle deg
:documentation
   .ast/.asf automatically generated from VICON data using
   VICON BodyBuilder and BodyLanguage model FoxedUp or BRILLIANT.MOD
:root
   order TX TY TZ RX RY RZ
   axis XYZ
   position 0 0 0  
   orientation 0 0 0 
:bonedata
  begin
     id 1 
     name lhipjoint
     direction 0.643824 -0.71708 0.266994 
     length 2.52133 
     axis 0 0 0  XYZ
  end
  begin
     id 2 
     name lfemur
     direction 0.34202 -0.939693 0  
     length 7.51824  
     axis 0 0 20  XYZ
    dof rx ry rz
    limits (-160.0 20.0)
           (-70.0 70.0)
           (-60.0 70.0)
  end
  begin
     id 3 
     name ltibia
     direction 0.34202 -0.939693 0   
     length 7.3685   
     axis 0 0 20   XYZ
    dof rx
    limits (-10.0 170.0)
  end
  begin
     id 4 
     name lfoot
     direction 0.105419 -0.289636 0.951314   
     length 2.20972   
     axis -90 7.62852e-016 20   XYZ
    dof rx rz
    limits (-45.0 90.0)
           (-70.0 20.0)
  end
  begin
     id 5 
     name ltoes
     direction 1.53549e-011 -4.21833e-011 1   
     length 1.10139   
     axis -90 7.62852e-016 20   XYZ
    dof rx
    limits (-90.0 20.0)
  end
  begin
     id 6 
     name rhipjoint
     direction -0.608823 -0.743445 0.276811   
     length 2.43192  
     axis 0 0 0  XYZ 
  end
  begin
     id 7 
     name rfemur
     direction -0.34202 -0.939693 0   
     length 7.69715   
     axis 0 0 -20   XYZ
    dof rx ry rz
    limits (-160.0 20.0)
           (-70.0 70.0)
           (-70.0 60.0)
  end
  begin
     id 8 
     name rtibia
     direction -0.34202 -0.939693 0   
     length 7.44924   
     axis 0 0 -20   XYZ
    dof rx
    limits (-10.0 170.0)
 end
 begin
     id 9 
     name rfoot
     direction -0.103614 -0.284677 0.953007   
     length 2.22623  
     axis -90 -7.62852e-016 -20   XYZ
    dof rx rz
    limits (-45.0 90.0)
           (-20.0 70.0)
  end
  begin
     id 10 
     name rtoes
     direction -1.53537e-011 -4.22026e-011 1   
     length 1.11   
     axis -90 -7.62852e-016 -20   XYZ
    dof rx
    limits (-90.0 20.0)
  end
  begin
     id 11 
     name lowerback
     direction -0.0101212 0.99662 -0.0815298   
     length 2.08277   
     axis 0 0 0   XYZ
    dof rx ry rz
    limits (-20.0 45.0)
           (-30.0 30.0)
           (-30.0 30.0)
  end
  begin
     id 12 
     name upperback
     direction 0.024314 0.999591 -0.0150645   
     length 2.08524   
     axis 0 0 0   XYZ
    dof rx ry rz
    limits (-20.0 45.0)
           (-30.0 30.0)
           (-30.0 30.0)
  end
  begin
     id 13 
     name thorax
     direction 0.0285959 0.999323 0.0231357   
     length 2.09645   
     axis 0 0 0   XYZ
    dof rx ry rz
    limits (-20.0 45.0)
           (-30.0 30.0)
           (-30.0 30.0)
  end
  begin
     id 14 
     name lowerneck
     direction -0.065512 0.979301 0.191515   
     length 1.63798   
     axis 0 0 0   XYZ
    dof rx ry rz
    limits (-20.0 45.0)
           (-30.0 30.0)
           (-30.0 30.0)
  end
  begin
     id 15 
     name upperneck
     direction 0.0498479 0.98191 -0.182667   
     length 1.68731   
     axis 0 0 0   XYZ
    dof rx ry rz
    limits (-20.0 45.0)
           (-30.0 30.0)
           (-30.0 30.0)
  end
  begin
     id 16
     name head
     direction 0.0230358 0.996257 -0.0833175  
     length 1.69785  
     axis 0 0 0   XYZ
    dof rx ry rz
    limits (-20.0 45.0)
           (-30.0 30.0)
           (-30.0 30.0)
  end
  begin
     id 17 
     name lclavicle
     direction 0.967963 0.201165 -0.150269  
     length 3.63976  
     axis 0 0 0   XYZ
    dof ry rz
    limits (-20.0 10.0)
           (0.0 20.0)
  end
  begin
     id 18 
     name lhumerus
     direction 1 -4.48954e-011 -2.92837e-028   
     length 5.32462   
     axis 180 -30 -90   XYZ
    dof rx ry rz
    limits (-60.0 90.0)
           (-90.0 90.0)
           (-90.0 90.0)
  end
  begin
     id 19
     name lradius
     direction 1 -4.48958e-011 -6.39511e-027   
     length 3.48402   
     axis 180 -30 -90   XYZ
    dof rx
    limits (-10.0 170.0)
  end
  begin
     id 20
     name lwrist
     direction 1 -4.48975e-011 -1.1413e-026   
     length 1.74201   
     axis 6.88575e-015 90 90   XYZ
    dof ry
    limits (-180.0 0.0)
 end
  begin
     id 21 
     name lhand
     direction 1 -4.48899e-011 -2.28192e-026   
     length 0.572476   
     axis 1.45643e-014 90 90   XYZ
    dof rx rz
    limits (-90.0 90.0)
           (-45.0 45.0)
  end
  begin
     id 22 
     name lfingers
     direction 1 -4.49155e-011 -4.5684e-026   
     length 0.461545   
     axis 2.91283e-014 90 90   XYZ
    dof rx
    limits (0.0 90.0)
  end
  begin
     id 23
     name lthumb
     direction 0.707107 -6.34943e-011 0.707107   
     length 0.662688   
     axis -90 45 -2.25915e-014   XYZ
    dof rx rz
    limits (-45.0 45.0)
           (-45.0 45.0)
  end
  begin
     id 24 
     name rclavicle
     direction -0.964103 0.264019 -0.0282629   
     length 3.54491  
     axis 0 0 0   XYZ 
    dof ry rz
    limits (-10.0 20.0)
           (-20.0 0.0)
  end
  begin
     id 25 
     name rhumerus
     direction -1 -4.48964e-011 -2.45032e-027  
     length 5.33589   
     axis 180 30 90   XYZ
    dof rx ry rz
    limits (-90.0 60.0)
           (-90.0 90.0)
           (-90.0 90.0)
  end
  begin
     id 26 
     name rradius
     direction -1 -4.48987e-011 -1.55093e-027   
     length 3.64134   
     axis 180 30 90   XYZ
    dof rx
    limits (-10.0 170.0)
  end
  begin
     id 27 
     name rwrist
     direction -1 -4.4897e-011 -1.14128e-026   
     length 1.82067   
     axis 6.88575e-015 -90 -90   XYZ
    dof ry
    limits (-180.0 0.0)
  end
  begin
     id 28
     name rhand
     direction -1 -4.49021e-011 -2.28301e-026   
     length 0.734811   
     axis 1.45643e-014 -90 -90   XYZ
    dof rx rz
    limits (-90.0 90.0)
           (-45.0 45.0)
  end
  begin
     id 29
     name rfingers
     direction -1 -4.48862e-011 -4.56319e-026   
     length 0.592424   
     axis 2.91283e-014 -90 -90   XYZ
    dof rx
    limits (0.0 90.0)
  end
  begin
     id 30
     name rthumb
     direction -0.707107 -6.34978e-011 0.707107   
     length 0.850605   
     axis -90 -45 2.25915e-014   XYZ
    dof rx rz
    limits (-45.0 45.0)
           (-45.0 45.0)
  end
:hierarchy
  begin
    root lhipjoint rhipjoint lowerback
    lhipjoint lfemur
    lfemur ltibia
    ltibia lfoot
    lfoot ltoes
    rhipjoint rfemur
    rfemur rtibia
    rtibia rfoot
    rfoot rtoes
    lowerback upperback
    upperback thorax
    thorax lowerneck lclavicle rclavicle
    lowerneck upperneck
    upperneck head
    lclavicle lhumerus
    lhumerus lradius
    lradius lwrist
    lwrist lhand lthumb
    lhand lfingers
    rclavicle rhumerus
    rhumerus rradius
    rradius rwrist
    rwrist rhand rthumb
    rhand rfingers
  end

#!OML:ASF F:\VICON\USERDATA\INSTALL\rory3\rory3.ASF
:FULLY-SPECIFIED
:DEGREES
1
root -1.1969 17.8515 -5.04179 6.98082 -4.3943 1.4245
lowerback 5.03331 -1.20174 -0.073097
upperback 2.86815 -1.59329 4.26889
thorax 0.257026 -0.835325 4.52163
lowerneck -20.6176 -3.23694 -10.2372
upperneck 29.3049 -2.84611 5.49128
head 13.6103 -1.64422 3.43066
rclavicle 1.19271e-015 -9.54166e-015
rhumerus -24.8306 -5.87673 -78.3981
rradius 28.3017
rwrist 21.1898
rhand -21.0695 3.20841
rfingers 7.12502
rthumb 5.30721 -26.7051
lclavicle 1.19271e-015 -9.54166e-015
lhumerus -30.3772 3.47662 85.5996
lradius 36.2532
lwrist -8.46336
lhand -6.49029 27.7457
lfingers 7.12502
lthumb 19.361 56.8019
rfemur -23.0373 3.76985 15.8906
rtibia 32.6726
rfoot -15.1165 -0.752451
rtoes 3.26713
lfemur -14.4657 -6.66211 -12.9848
ltibia 22.9703
lfoot -9.38599 13.7852
ltoes -21.1364
2
root -1.20407 17.8522 -5.03515 6.91548 -4.33554 1.47938
lowerback 5.11343 -1.22145 -0.0952896
upperback 2.89801 -1.61953 4.33517
thorax 0.248151 -0.84966 4.60656
lowerneck -20.4952 -3.19003 -10.2631
upperneck 29.3143 -2.75132 5.39672
head 13.5784 -1.62046 3.41379
rclavicle -1.47101e-014 -1.59028e-014
rhumerus -24.939 -5.86009 -78.2082
rradius 27.9946
rwrist 21.2696
rhand -21.0744 3.12383
rfingers 7.12502
rthumb 5.30253 -26.7898
lclavicle -1.47101e-014 -1.59028e-014
lhumerus -30.1684 3.11483 85.5994
lradius 36.798
lwrist -8.32445
lhand -6.76092 27.6569
lfingers 7.12502
lthumb 19.1007 56.7389
rfemur -22.9665 3.80179 15.8676
rtibia 32.7355
rfoot -15.0345 -0.962235
rtoes 3.6202
lfemur -14.4664 -6.49902 -13.0557
ltibia 23.0689
lfoot -9.26699 13.6528
ltoes -21.232
3
root -1.21288 17.8538 -5.02961 6.89523 -4.27721 1.50444
lowerback 5.23873 -1.25562 -0.123096
upperback 2.84568 -1.66095 4.43255
thorax 0.131881 -0.869771 4.73051
lowerneck -20.2986 -3.11321 -10.3179
upperneck 29.352 -2.61123 5.2976
head 13.5388 -1.58242 3.40864
rclavicle 9.93923e-015 2.54444e-014
rhumerus -25.0721 -5.67051 -78.0131
rradius 27.6141
rwrist 21.3169
rhand -21.1402 3.14573
rfingers 7.12502
rthumb 5.23902 -26.7695
lclavicle 9.93923e-015 2.54444e-014
lhumerus -30.2105 2.96926 85.6023
lradius 37.446
lwrist -8.29462
lhand -7.05 27.5819
lfingers 7.12502
lthumb 18.8227 56.6912
rfemur -22.9038 3.90809 15.8652
rtibia 32.7452
rfoot -15.0435 -1.13876
rtoes 4.23965
lfemur -14.5577 -6.35577 -13.0593
ltibia 23.2603
lfoot -9.13938 13.4928
ltoes -21.5261
4
root -1.22219 17.8554 -5.0215 6.88229 -4.33133 1.52906
lowerback 5.2585 -1.23948 -0.152858
upperback 2.83839 -1.63994 4.4951
thorax 0.11457 -0.859926 4.81268
lowerneck -20.1528 -3.05892 -10.3285
upperneck 29.4088 -2.52945 5.2433
head 13.5234 -1.55835 3.40435
rclavicle -9.14409e-015 5.08889e-014
rhumerus -25.1862 -5.6781 -77.7678
rradius 27.1558
rwrist 21.7452
rhand -21.3393 3.85065
rfingers 7.12502
rthumb 5.04678 -26.0693
lclavicle -9.14409e-015 5.08889e-014
lhumerus -30.2981 2.79409 85.5725
lradius 38.2013
lwrist -8.23305
lhand -7.17487 27.6952
lfingers 7.12502
lthumb 18.7026 56.8161
rfemur -22.8601 4.00711 15.8725
rtibia 32.7378
rfoot -14.9464 -1.20054
rtoes 4.86752
lfemur -14.6281 -6.0338 -13.0841
ltibia 23.4908
lfoot -9.07483 13.3064
ltoes -22.0237
5
root -1.2299 17.8562 -5.01435 6.8305 -4.38568 1.48154
lowerback 5.27882 -1.20935 -0.0693177
upperback 2.89051 -1.59755 4.52596
thorax 0.152021 -0.839085 4.79535
lowerneck -20.0581 -3.03986 -10.3374
upperneck 29.4651 -2.53292 5.30774
head 13.528 -1.55428 3.43289
rclavicle 1.90833e-014 -3.02153e-014
rhumerus -25.3126 -5.81637 -77.6111
rradius 26.7815
rwrist 22.006
rhand -21.0892 4.00262
rfingers 7.12502
rthumb 5.28818 -25.9114
lclavicle 1.90833e-014 -3.02153e-014
lhumerus -30.2597 2.50805 85.478
lradius 38.8834
lwrist -8.0626
lhand -7.35564 27.5746
lfingers 7.12502
lthumb 18.5288 56.7122
rfemur -22.7658 4.15767 15.9594
rtibia 32.7033
rfoot -14.8322 -1.31269
rtoes 5.758
lfemur -14.6376 -5.73617 -13.0335
ltibia 23.7489
lfoot -9.16243 13.1245
ltoes -22.2404
6
root -1.23778 17.8607 -5.00942 6.77767 -4.364 1.45658
lowerback 5.33478 -1.18636 -0.0532322
upperback 2.95095 -1.56703 4.57896
thorax 0.181941 -0.825197 4.84108
lowerneck -20.0778 -3.04863 -10.3278
upperneck 29.5514 -2.54713 5.30251
head 13.5701 -1.56172 3.42929
rclavicle 1.39149e-014 2.54444e-014
rhumerus -25.3749 -5.91868 -77.4722
rradius 26.4581
rwrist 21.885
rhand -20.2699 3.00767
rfingers 7.12502
rthumb 6.07929 -26.8851
lclavicle 1.39149e-014 2.54444e-014
lhumerus -30.148 2.32908 85.4065
lradius 39.5271
lwrist -7.98005
lhand -7.41383 27.6854
lfingers 7.12502
lthumb 18.4728 56.8283
rfemur -22.6735 4.25949 16.0256
rtibia 32.6649
rfoot -14.734 -1.46385
rtoes 6.41566
lfemur -14.6884 -5.59713 -12.9724
ltibia 24.0153
lfoot -9.22232 12.9
ltoes -22.1346
7
root -1.24355 17.8622 -5.00152 6.75421 -4.26404 1.50273
lowerback 5.30352 -1.18716 -0.0863996
upperback 3.01675 -1.5729 4.62458
thorax 0.270241 -0.830829 4.9064
lowerneck -20.1515 -3.05015 -10.2986
upperneck 29.6225 -2.5225 5.21341
head 13.6124 -1.56057 3.39478
rclavicle 2.06736e-014 -3.81667e-014
rhumerus -25.4006 -6.11286 -77.2888
rradius 26.208
rwrist 22.0192
rhand -19.7817 2.21834
rfingers 7.12502
rthumb 6.55059 -27.6604
lclavicle 2.06736e-014 -3.81667e-014
lhumerus -29.9575 2.15793 85.3849
lradius 40.0908
lwrist -7.93025
lhand -7.4016 28.0474
lfingers 7.12502
lthumb 18.4845 57.1891
rfemur -22.5977 4.28005 16.009
rtibia 32.6365
rfoot -14.6607 -1.59799
rtoes 6.99185
lfemur -14.8299 -5.46513 -12.9806
ltibia 24.2739
lfoot -9.12412 12.5719
ltoes -22.5873
8
root -1.25055 17.861 -4.99235 6.72959 -4.16282 1.52107
lowerback 5.2373 -1.20437 -0.115179
upperback 3.06847 -1.60083 4.705
thorax 0.36648 -0.847858 5.00609
lowerneck -20.0998 -3.01069 -10.3537
upperneck 29.6965 -2.43823 5.17005
head 13.6255 -1.53838 3.40359
rclavicle 1.11319e-014 -6.36111e-015
rhumerus -25.4268 -6.25006 -77.0615
rradius 25.9376
rwrist 22.3912
rhand -19.6414 1.9304
rfingers 7.12502
rthumb 6.68597 -27.944
lclavicle 1.11319e-014 -6.36111e-015
lhumerus -29.8236 1.99075 85.3984
lradius 40.673
lwrist -7.68658
lhand -7.94672 27.993
lfingers 7.12502
lthumb 17.9601 57.1838
rfemur -22.5185 4.30628 16.0326
rtibia 32.6141
rfoot -14.6333 -1.76245
rtoes 7.30472
lfemur -14.961 -5.25686 -12.9617
ltibia 24.5079
lfoot -8.8795 12.2208
ltoes -23.2143
9
root -1.25859 17.8608 -4.98495 6.65713 -4.04548 1.52637
lowerback 5.25329 -1.22854 -0.127546
upperback 3.10732 -1.63465 4.76809
thorax 0.40325 -0.866614 5.08094
lowerneck -19.969 -2.95228 -10.3783
upperneck 29.7066 -2.35513 5.15542
head 13.5938 -1.5085 3.41654
rclavicle 3.18055e-015 -3.18055e-015
rhumerus -25.4388 -6.46514 -76.8635
rradius 25.582
rwrist 22.7931
rhand -19.5447 1.70024
rfingers 7.12502
rthumb 6.77935 -28.1712
lclavicle 3.18055e-015 -3.18055e-015
lhumerus -29.795 1.8178 85.3579
lradius 41.3039
lwrist -7.50359
lhand -8.62923 27.4152
lfingers 7.12502
lthumb 17.3033 56.6649
rfemur -22.3777 4.43663 16.0739
rtibia 32.5707
rfoot -14.6751 -2.06198
rtoes 7.35061
lfemur -15.0468 -5.0589 -12.9303
ltibia 24.7451
lfoot -8.72231 11.9636
ltoes -24.0872
10
root -1.26623 17.8655 -4.97509 6.60494 -3.97265 1.53623
lowerback 5.25267 -1.244 -0.103538
upperback 3.12876 -1.65504 4.79372
thorax 0.427746 -0.877337 5.09485
lowerneck -19.8517 -2.92427 -10.4265
upperneck 29.7126 -2.31989 5.18113
head 13.5689 -1.49637 3.44133
rclavicle 1.23246e-014 3.65764e-014
rhumerus -25.5138 -6.66529 -76.7279
rradius 25.3375
rwrist 23.0647
rhand -19.5009 1.52486
rfingers 7.12502
rthumb 6.82168 -28.3452
lclavicle 1.23246e-014 3.65764e-014
lhumerus -29.7363 1.75876 85.2445
lradius 41.7952
lwrist -7.42471
lhand -8.92324 27.3954
lfingers 7.12502
lthumb 17.0203 56.6697
rfemur -22.2345 4.53092 16.1008
rtibia 32.4855
rfoot -14.7285 -2.26885
rtoes 7.40927
lfemur -15.1152 -4.84796 -12.9138
ltibia 25.0083
lfoot -8.69429 11.6767
ltoes -24.4886
11
root -1.27364 17.877 -4.96496 6.56903 -3.89409 1.55228
lowerback 5.26485 -1.28102 -0.11111
upperback 3.13243 -1.70448 4.8367
thorax 0.430985 -0.902812 5.14691
lowerneck -19.8069 -2.903 -10.4822
upperneck 29.7921 -2.27719 5.18312
head 13.5902 -1.48642 3.4614
rclavicle -3.97569e-015 -3.18055e-015
rhumerus -25.6049 -6.94626 -76.5617
rradius 25.1344
rwrist 23.4386
rhand -19.5114 1.38817
rfingers 7.12502
rthumb 6.81146 -28.4823
lclavicle -3.97569e-015 -3.18055e-015
lhumerus -29.7512 1.74928 85.1643
lradius 42.3538
lwrist -7.16652
lhand -9.49482 27.7248
lfingers 7.12502
lthumb 16.4701 57.0457
rfemur -22.0847 4.64074 16.1123
rtibia 32.3702
rfoot -14.7381 -2.46469
rtoes 7.2578
lfemur -15.1978 -4.61051 -12.9053
ltibia 25.2868
lfoot -8.54588 11.2453
ltoes -25.0624
12
root -1.27897 17.8867 -4.95438 6.54826 -3.80205 1.49058
lowerback 5.24781 -1.30695 -0.0348126
upperback 3.13504 -1.73625 4.8967
thorax 0.445812 -0.918516 5.16747
lowerneck -19.7938 -2.8784 -10.466
upperneck 29.926 -2.22823 5.11277
head 13.6389 -1.47647 3.44265
rclavicle -4.77083e-015 -6.36111e-015
rhumerus -25.7045 -7.2416 -76.3863
rradius 24.9329
rwrist 23.7788
rhand -19.6077 1.26346
rfingers 7.12502
rthumb 6.71853 -28.61
lclavicle -4.77083e-015 -6.36111e-015
lhumerus -29.7365 1.66741 85.1258
lradius 42.872
lwrist -6.88286
lhand -10.8695 26.6844
lfingers 7.12502
lthumb 15.1462 56.1101
rfemur -21.9296 4.7329 16.2059
rtibia 32.2038
rfoot -14.7614 -2.6593
rtoes 7.48587
lfemur -15.3539 -4.50072 -12.7794
ltibia 25.6032
lfoot -8.42902 10.9295
ltoes -25.5906
13
root -1.28339 17.8894 -4.94314 6.53141 -3.69794 1.49188
lowerback 5.19902 -1.34452 -0.0453821
upperback 3.1441 -1.78854 4.95661
thorax 0.489688 -0.946231 5.23731
lowerneck -19.7162 -2.81738 -10.4298
upperneck 29.9613 -2.11599 4.97484
head 13.6247 -1.44405 3.4009
rclavicle 3.37934e-014 0
rhumerus -25.7384 -7.41288 -76.2365
rradius 24.722
rwrist 23.9578
rhand -19.6882 1.04272
rfingers 7.12502
rthumb 6.64081 -28.8331
lclavicle 3.37934e-014 0
lhumerus -29.6191 1.64467 85.0924
lradius 43.2043
lwrist -6.63146
lhand -11.8713 25.3676
lfingers 7.12502
lthumb 14.181 54.8636
rfemur -21.7709 4.74752 16.2458
rtibia 31.9917
rfoot -14.7588 -2.9523
rtoes 7.28251
lfemur -15.5276 -4.56976 -12.6849
ltibia 25.9349
lfoot -8.34816 10.639
ltoes -25.3767
14
root -1.28815 17.892 -4.93277 6.43387 -3.58919 1.48646
lowerback 5.24954 -1.36793 -0.0251102
upperback 3.16655 -1.8183 5.00325
thorax 0.488615 -0.961662 5.27742
lowerneck -19.5888 -2.78222 -10.438
upperneck 29.9565 -2.04567 4.88136
head 13.5883 -1.42809 3.37619
rclavicle -7.95139e-016 -7.95139e-015
rhumerus -25.7824 -7.55816 -76.0969
rradius 24.5549
rwrist 24.0123
rhand -19.8108 0.616095
rfingers 7.12502
rthumb 6.52249 -29.2635
lclavicle -7.95139e-016 -7.95139e-015
lhumerus -29.5316 1.64472 85.0665
lradius 43.5606
lwrist -6.39924
lhand -11.8401 25.4723
lfingers 7.12502
lthumb 14.2111 54.9661
rfemur -21.4802 4.81415 16.2916
rtibia 31.7384
rfoot -14.825 -3.19802
rtoes 7.27654
lfemur -15.6148 -4.68876 -12.5819
ltibia 26.2729
lfoot -8.14658 10.2254
ltoes -24.6328
15
root -1.29336 17.9036 -4.92321 6.30005 -3.46059 1.51461
lowerback 5.31376 -1.37667 -0.0415396
upperback 3.22901 -1.83141 5.02966
thorax 0.520242 -0.969979 5.31632
lowerneck -19.575 -2.7733 -10.3999
upperneck 30.0022 -2.01876 4.79364
head 13.6012 -1.42511 3.34019
rclavicle -3.57812e-014 1.27222e-014
rhumerus -25.853 -7.80164 -75.9569
rradius 24.4708
rwrist 24.0458
rhand -20.0694 0.298862
rfingers 7.12502
rthumb 6.27286 -29.5883
lclavicle -3.57812e-014 1.27222e-014
lhumerus -29.4636 1.48528 85.0814
lradius 43.9693
lwrist -6.02958
lhand -12.8923 24.3691
lfingers 7.12502
lthumb 13.197 53.9314
rfemur -21.1404 4.86997 16.3028
rtibia 31.4957
rfoot -14.8673 -3.38734
rtoes 7.21385
lfemur -15.7422 -4.84337 -12.4892
ltibia 26.5906
lfoot -7.9196 9.80493
ltoes -23.7517
